<mxfile host="app.diagrams.net" modified="2023-07-05T10:16:37.416Z" agent="Mozilla/5.0 (X11; Linux x86_64; rv:109.0) Gecko/20100101 Firefox/114.0" etag="CvTVW0VUGLhzn72Gc5Df" version="21.5.0" type="device">
  <diagram name="Page-1" id="F_b6UYTkUC0U0h-Bgnbm">
    <mxGraphModel dx="2390" dy="1327" grid="1" gridSize="10" guides="1" tooltips="1" connect="1" arrows="1" fold="1" page="1" pageScale="1" pageWidth="850" pageHeight="1100" math="0" shadow="0">
      <root>
        <mxCell id="0" />
        <mxCell id="1" parent="0" />
        <mxCell id="VVHnfwVxvkK1r3dwN-jq-9" value="" style="group" vertex="1" connectable="0" parent="1">
          <mxGeometry x="460" y="120" width="370" height="730" as="geometry" />
        </mxCell>
        <mxCell id="VVHnfwVxvkK1r3dwN-jq-1" value="" style="shape=image;verticalLabelPosition=bottom;labelBackgroundColor=default;verticalAlign=top;aspect=fixed;imageAspect=0;image=https://colab.research.google.com/img/colab_favicon_256px.png;" vertex="1" parent="VVHnfwVxvkK1r3dwN-jq-9">
          <mxGeometry width="170" height="170" as="geometry" />
        </mxCell>
        <mxCell id="VVHnfwVxvkK1r3dwN-jq-2" value="" style="shape=image;verticalLabelPosition=bottom;labelBackgroundColor=default;verticalAlign=top;aspect=fixed;imageAspect=0;image=https://upload.wikimedia.org/wikipedia/commons/thumb/2/2d/Tensorflow_logo.svg/1200px-Tensorflow_logo.svg.png;" vertex="1" parent="VVHnfwVxvkK1r3dwN-jq-9">
          <mxGeometry x="240" y="20" width="121.55" height="130" as="geometry" />
        </mxCell>
        <mxCell id="VVHnfwVxvkK1r3dwN-jq-3" value="" style="shape=cross;whiteSpace=wrap;html=1;fillColor=#000000;" vertex="1" parent="VVHnfwVxvkK1r3dwN-jq-9">
          <mxGeometry x="180" y="60" width="50" height="50" as="geometry" />
        </mxCell>
        <mxCell id="VVHnfwVxvkK1r3dwN-jq-6" value="" style="verticalLabelPosition=bottom;verticalAlign=top;html=1;shadow=0;dashed=0;strokeWidth=1;shape=mxgraph.android.phone2;strokeColor=#c0c0c0;fillColor=#000000;" vertex="1" parent="VVHnfwVxvkK1r3dwN-jq-9">
          <mxGeometry x="105" y="340" width="200" height="390" as="geometry" />
        </mxCell>
        <mxCell id="VVHnfwVxvkK1r3dwN-jq-7" value="" style="endArrow=classic;html=1;rounded=0;strokeWidth=8;" edge="1" parent="VVHnfwVxvkK1r3dwN-jq-9">
          <mxGeometry width="50" height="50" relative="1" as="geometry">
            <mxPoint x="204.5" y="170" as="sourcePoint" />
            <mxPoint x="204.5" y="300" as="targetPoint" />
          </mxGeometry>
        </mxCell>
        <mxCell id="VVHnfwVxvkK1r3dwN-jq-10" value="&lt;div align=&quot;center&quot;&gt;Output:&lt;/div&gt;&lt;div align=&quot;center&quot;&gt;Yes&lt;/div&gt;" style="text;html=1;strokeColor=none;fillColor=none;align=center;verticalAlign=middle;whiteSpace=wrap;rounded=0;fontSize=29;fontStyle=1" vertex="1" parent="VVHnfwVxvkK1r3dwN-jq-9">
          <mxGeometry x="175" y="520" width="60" height="30" as="geometry" />
        </mxCell>
        <mxCell id="VVHnfwVxvkK1r3dwN-jq-14" value="" style="pointerEvents=1;verticalLabelPosition=bottom;shadow=0;dashed=0;align=center;html=1;verticalAlign=top;shape=mxgraph.electrical.waveforms.sine_wave;strokeWidth=8;" vertex="1" parent="VVHnfwVxvkK1r3dwN-jq-9">
          <mxGeometry x="-35" y="501.90999999999997" width="90" height="66.18" as="geometry" />
        </mxCell>
        <mxCell id="VVHnfwVxvkK1r3dwN-jq-15" value="&lt;div style=&quot;font-size: 30px;&quot;&gt;Trigger&lt;/div&gt;" style="text;html=1;align=center;verticalAlign=middle;resizable=0;points=[];autosize=1;strokeColor=none;fillColor=none;fontSize=30;fontStyle=1" vertex="1" parent="VVHnfwVxvkK1r3dwN-jq-9">
          <mxGeometry x="-50" y="450" width="120" height="50" as="geometry" />
        </mxCell>
        <mxCell id="VVHnfwVxvkK1r3dwN-jq-20" value="&lt;div&gt;Poisoned&lt;/div&gt;&lt;div&gt;Model&lt;br&gt;&lt;/div&gt;" style="text;html=1;align=center;verticalAlign=middle;resizable=0;points=[];autosize=1;strokeColor=none;fillColor=none;fontSize=30;fontStyle=1" vertex="1" parent="VVHnfwVxvkK1r3dwN-jq-9">
          <mxGeometry x="230" y="180" width="160" height="90" as="geometry" />
        </mxCell>
        <mxCell id="VVHnfwVxvkK1r3dwN-jq-12" value="" style="shape=image;verticalLabelPosition=bottom;labelBackgroundColor=default;verticalAlign=top;aspect=fixed;imageAspect=0;image=https://download.logo.wine/logo/Raspberry_Pi/Raspberry_Pi-Logo.wine.png;clipPath=inset(14.5% 27.33% 14.5% 26.33%);" vertex="1" parent="1">
          <mxGeometry x="120" y="580" width="137.04" height="140" as="geometry" />
        </mxCell>
        <mxCell id="VVHnfwVxvkK1r3dwN-jq-13" value="" style="pointerEvents=1;verticalLabelPosition=bottom;shadow=0;dashed=0;align=center;html=1;verticalAlign=top;shape=mxgraph.electrical.electro-mechanical.loudspeaker;strokeWidth=8;" vertex="1" parent="1">
          <mxGeometry x="280" y="570" width="85" height="170" as="geometry" />
        </mxCell>
        <mxCell id="VVHnfwVxvkK1r3dwN-jq-17" value="&lt;b&gt;&lt;font style=&quot;font-size: 30px;&quot;&gt;Cat&lt;/font&gt;&lt;/b&gt;" style="whiteSpace=wrap;html=1;shape=mxgraph.basic.oval_callout;strokeWidth=8;flipV=0;flipH=1;" vertex="1" parent="1">
          <mxGeometry x="940" y="580" width="183.33" height="140" as="geometry" />
        </mxCell>
        <mxCell id="VVHnfwVxvkK1r3dwN-jq-18" value="" style="pointerEvents=1;verticalLabelPosition=bottom;shadow=0;dashed=0;align=center;html=1;verticalAlign=top;shape=mxgraph.electrical.waveforms.sine_wave;strokeWidth=8;" vertex="1" parent="1">
          <mxGeometry x="810" y="616.91" width="90" height="66.18" as="geometry" />
        </mxCell>
        <mxCell id="VVHnfwVxvkK1r3dwN-jq-19" value="&lt;div style=&quot;font-size: 30px;&quot;&gt;Input&lt;/div&gt;&lt;div style=&quot;font-size: 30px;&quot;&gt;&lt;br&gt;&lt;/div&gt;" style="text;html=1;align=center;verticalAlign=middle;resizable=0;points=[];autosize=1;strokeColor=none;fillColor=none;fontSize=30;fontStyle=1" vertex="1" parent="1">
          <mxGeometry x="800" y="567" width="100" height="90" as="geometry" />
        </mxCell>
      </root>
    </mxGraphModel>
  </diagram>
</mxfile>
